<svg width="998" height="212" viewBox="0 0 998 212" fill="none" xmlns="http://www.w3.org/2000/svg">
<path fill-rule="evenodd" clip-rule="evenodd" d="M0 106.048V211.095L25.25 211.056C67.948 210.99 97.931 209.577 110.5 207.04C129.721 203.158 147.015 193.983 156.573 182.593C160.913 177.421 167.727 167.39 169.684 163.292C171.241 160.032 174.499 150.017 175.835 144.383C176.42 141.918 177.48 137.437 178.191 134.425C180.278 125.586 179.881 85.3518 177.602 74.6827C174.543 60.3683 174.289 59.4364 171.684 53.0349C167.54 42.8508 162.077 34.8612 153.038 25.7664C145.763 18.4469 143.056 16.4793 134.738 12.4686C118.648 4.70903 111.041 3.09398 85.5 2.01463C73.4 1.50383 49.212 1.06572 31.75 1.04282L0 1V106.048ZM238 106.048V211.095H244H250V106.048V1H244H238V106.048ZM315.204 104.598C315.521 172.631 315.335 210.338 316 211C317 211 322.5 211 322.5 211H328.99L329.245 113.405L329.5 15.4378L337.127 28.3821C346.29 43.9331 359.369 66.5019 362.806 72.6913C366.279 78.9463 374.836 93.4091 377.535 97.5841C378.773 99.5008 383.501 107.566 388.041 115.507C392.58 123.448 397.738 132.409 399.502 135.421C405.401 145.493 417.58 166.713 421.285 173.376C424.61 179.353 425.305 180.022 428.763 180.573C437.015 181.887 440.241 179.519 446.866 167.284C449.222 162.934 469.062 128.547 475.59 117.498C477.37 114.486 480.268 109.333 482.031 106.048C483.794 102.762 485.813 99.4013 486.517 98.5798C487.221 97.7583 488.743 95.4065 489.899 93.3523C491.054 91.2992 492.9 88.0501 494 86.1334C495.1 84.2167 496.948 80.9676 498.107 78.9145C499.265 76.8603 500.576 74.7325 501.02 74.1849C501.463 73.6372 503.486 70.0526 505.516 66.2192C507.545 62.3857 509.743 58.5771 510.401 57.7556C511.058 56.9341 512.892 53.7976 514.477 50.7856C516.061 47.7736 518.121 44.189 519.055 42.8199C519.988 41.4508 523.617 35.1778 527.119 28.8799L533.486 17.4293L534.102 22.4078C534.441 25.146 535.05 68.3848 535.456 118.494C535.862 168.603 536 211 536 211C536.084 211.063 539.829 211.093 542.5 211C544.948 210.915 549 210.906 549 210.906V105.953V1H540.124H531.248L520.467 19.1718C514.538 29.1667 508.383 39.5839 506.79 42.3221C505.196 45.0603 503.031 48.6448 501.977 50.2878C499.894 53.5348 497.707 57.2319 494.536 62.8676C492.053 67.2786 485.67 78.1119 478.48 90.1162C475.528 95.045 472.123 100.87 470.912 103.061C467.063 110.029 451.863 135.72 448.367 141.165C446.515 144.052 445 146.66 445 146.96C445 147.262 443.726 149.382 442.168 151.671C440.611 153.96 439.045 156.505 438.69 157.327C435.946 163.658 431 169.417 431 166.28C431 165.637 429.245 162.575 427.1 159.477C424.955 156.378 419.833 148.017 415.718 140.898C411.602 133.778 405.189 122.801 401.466 116.503C397.744 110.205 392.825 101.691 390.537 97.5841C385.445 88.4444 370.425 63.238 367.866 59.5379C366.84 58.0543 366 56.6065 366 56.3198C366 55.7931 359.701 45.2385 355.565 38.8371C351.388 32.3699 335 2.30055 335 1.5C335 0.498311 327.409 1 320.22 1H314.72L315.204 104.598ZM614.845 105.301C615.044 162.667 615.273 209.666 615.354 209.746C615.434 209.826 649.362 210.056 690.75 210.258L766 210.626V204.886V199.147H697H628V154.34V109.533H683H738V104.056V98.5798H683H628V55.7642V12.9485H697H766V6.97428V1H690.241H614.483L614.845 105.301ZM817 106.048V211.095L843.75 211.049C909.024 210.937 930.318 208.72 948.5 200.143C966.579 191.615 977.853 180.451 986.095 162.913C991.706 150.975 994.301 139.874 996.133 119.988C997.472 105.443 997.472 105.975 996.144 90.6141C994.064 66.5448 990.156 53.8733 979.561 36.8456C970.558 22.3769 951.949 10.0849 931.294 4.96393C920.5 2.28746 896.287 1.13343 849.25 1.05477L817 1V106.048ZM101.236 13.8875C103.581 14.4043 107.975 15.3393 111 15.9646C114.025 16.5909 120.775 19.1787 126 21.7148C138.359 27.715 150.498 38.9038 155.606 49.0043C163.803 65.2115 167.002 81.0712 166.996 105.476C166.99 130.446 163.885 145.985 155.79 161.556C151.533 169.745 141.21 181.772 136.375 184.175C134.794 184.961 132.15 186.56 130.5 187.729C127.617 189.771 119.11 192.932 106.592 196.615C101.617 198.077 95.227 198.417 66.092 198.765C47.067 198.992 27.563 199.339 22.75 199.536L14 199.893V106.42V12.9485H55.486C78.303 12.9485 98.89 13.3707 101.236 13.8875ZM922 14.7239C924.475 15.3303 928.344 16.2264 930.598 16.7153C932.852 17.2042 938.702 19.5591 943.598 21.9478C950.859 25.4895 954.067 27.8603 961 34.8044C970.103 43.9222 973.681 49.5619 977.554 60.9011C981.875 73.5496 983.306 84.4696 983.342 105.052C983.388 131.434 981.104 143.876 973.197 160.314C966.338 174.572 948.349 189.454 932.5 193.984C930.3 194.612 926.025 195.846 923 196.725C915.534 198.896 832.962 200.185 830.523 198.17C829.179 197.06 829 186.095 829 104.901V12.8888L873.25 13.2552C900.96 13.4842 919.182 14.0339 922 14.7239Z" fill="black"/>
</svg>
