<svg width="100" height="100" viewBox="0 0 100 100" fill="none" xmlns="http://www.w3.org/2000/svg">
<rect width="100" height="100" rx="10" fill="#3889F2"/>
<path d="M57.9039 55.6613L56.8928 56.7272C56.8928 56.7272 54.4862 59.259 47.9196 52.346C41.3529 45.433 43.7596 42.9012 43.7596 42.9012L44.3951 42.2283C45.9662 40.5765 46.1151 37.9224 44.744 35.9835L41.944 32.0235C40.2463 29.6235 36.9685 29.3058 35.0241 31.3529L31.5352 35.0235C30.573 36.04 29.9286 37.353 30.0063 38.8118C30.2063 42.5459 31.8019 50.5766 40.6996 59.9461C50.1373 69.8803 58.9928 70.2756 62.6128 69.9179C63.7595 69.805 64.755 69.1885 65.5572 68.3414L68.7128 65.0191C70.8461 62.7767 70.2461 58.9296 67.5172 57.3602L63.2728 54.9155C61.4817 53.8872 59.3039 54.1884 57.9039 55.6613Z" fill="white"/>
</svg>
